<svg width="227" height="176" viewBox="0 0 227 176" fill="none" xmlns="http://www.w3.org/2000/svg" color="#000000">
<path id="Union" fill-rule="evenodd" clip-rule="evenodd" d="M102.84 141.963C87.4136 161.23 63.754 175.972 32.6952 175.972H29.8521C26.806 175.972 23.7598 175.769 20.7137 174.956C3.85844 170.692 1.6246 156.477 0.406152 148.15C0 145.917 0 143.886 0 141.652C0 127.234 6.09227 113.018 6.90457 111.191C11.3722 101.037 12.5907 91.0862 12.5907 82.7601C12.5907 70.1694 9.54455 61.4371 9.54455 61.4371H22.7445C52.5966 61.4371 63.5627 76.4647 63.5627 92.1015C63.5627 105.098 56.0489 118.704 45.4889 124.594C31.6798 132.514 23.3537 138.606 18.886 144.292C16.4491 147.541 15.2307 151.806 15.2307 155.867C15.2307 159.32 16.246 162.569 17.8707 164.6C21.1199 168.458 27.2121 169.473 31.4767 169.473C33.1013 169.473 34.3198 169.473 35.3352 169.27C43.6613 168.052 80.2149 159.116 90.3686 125.812C92.1963 120.126 93.2117 113.221 93.2117 105.911C93.2117 92.5077 89.5563 77.8863 79.8087 65.7017C67.2675 50.3102 44.0581 48.2538 28.6477 46.8884C27.5888 46.7946 26.5668 46.704 25.5875 46.6126C11.1692 44.988 0.406152 35.6465 0.406152 22.0405V0.717529H38.5844C51.5812 0.717529 73.5134 5.59134 84.2764 12.0898C92.1527 16.6887 98.6118 21.8381 103.858 27.4877C103.456 25.7616 103.246 23.9427 103.246 22.0405V0.717529H141.424C154.421 0.717529 176.353 5.59134 187.116 12.0898C217.375 29.7573 226.716 55.5479 226.716 86.6185C226.716 122.969 194.427 175.972 135.535 175.972H132.692C129.646 175.972 126.6 175.769 123.554 174.956C106.698 170.692 104.464 156.477 103.246 148.15C102.859 146.021 102.841 144.076 102.84 141.963ZM114.053 41.6655C117.401 47.8421 119.768 54.4476 121.339 61.4371H125.584C155.436 61.4371 166.403 76.4647 166.403 92.1015C166.403 105.098 158.889 118.704 148.329 124.594C134.52 132.514 126.194 138.606 121.726 144.292C119.289 147.541 118.071 151.806 118.071 155.867C118.071 159.32 119.086 162.569 120.711 164.6C123.96 168.458 130.052 169.473 134.317 169.473C135.941 169.473 137.16 169.473 138.175 169.27C146.501 168.052 183.055 159.116 193.209 125.812C195.036 120.126 196.052 113.221 196.052 105.911C196.052 92.5077 192.396 77.8863 182.649 65.7017C170.107 50.3102 146.898 48.2538 131.488 46.8884C130.429 46.7946 129.407 46.704 128.427 46.6126C122.989 45.9998 118.07 44.289 114.053 41.6655Z" fill="currentcolor"/>
</svg>
