<svg width="365" height="53" viewBox="0 0 365 53" fill="none" xmlns="http://www.w3.org/2000/svg" color="#FFB800">
<path d="M364.329 39.5816C364.329 43.0016 362.949 46.0616 360.669 48.2816C358.389 50.5016 355.209 51.8816 351.729 51.8816H326.169C330.069 48.0416 331.449 44.4416 331.449 41.2616C331.449 34.1816 324.549 29.3816 324.549 29.3816H332.829C338.169 29.3816 346.149 30.5816 346.149 36.3416C346.149 39.5816 343.329 42.2216 340.749 44.8016C340.749 44.8016 337.389 47.3816 337.389 49.0016C337.389 49.7816 338.169 50.3816 340.389 50.3816C345.369 50.3816 350.529 42.2816 350.529 35.2616C350.529 31.3016 348.849 27.6416 344.409 26.0816C336.369 23.2616 324.549 29.0816 324.549 12.3416C324.549 4.06156 333.969 0.341553 342.489 0.341553H361.629C358.749 2.50155 357.789 5.20155 357.789 7.84155C357.789 13.2416 361.809 18.5216 361.929 18.5216H349.629C346.569 18.5216 343.749 16.0016 343.749 12.8216C343.749 11.1416 344.469 9.22155 346.389 7.42155C347.469 6.34155 350.349 4.42155 350.349 3.22156C350.349 2.68156 349.809 2.32155 348.489 2.14156C348.249 2.08155 347.949 2.08155 347.709 2.08155C342.549 2.08155 338.349 8.62155 338.349 14.5016C338.349 18.4016 340.149 22.0016 344.829 23.3216C348.549 24.3416 351.789 25.3616 354.549 26.3216C360.369 28.2416 364.329 33.5816 364.329 39.5816Z" fill="currentcolor"/>
<path d="M321.612 25.7216C321.612 36.4616 312.072 52.1216 294.672 52.1216H293.832C292.932 52.1216 292.032 52.0616 291.132 51.8216C286.152 50.5616 285.492 46.3616 285.132 43.9016C285.012 43.2416 285.012 42.6416 285.012 41.9816C285.012 37.7215 286.812 33.5216 287.052 32.9816C288.372 29.9816 288.732 27.0416 288.732 24.5816C288.732 20.8616 287.832 18.2816 287.832 18.2816H291.732C300.552 18.2816 303.792 22.7216 303.792 27.3416C303.792 31.1816 301.572 35.2016 298.452 36.9416C294.372 39.2816 291.912 41.0816 290.592 42.7616C289.872 43.7216 289.512 44.9816 289.512 46.1816C289.512 47.2016 289.812 48.1616 290.292 48.7616C291.252 49.9016 293.052 50.2016 294.312 50.2016C294.792 50.2016 295.152 50.2016 295.452 50.1416C297.912 49.7816 308.712 47.1416 311.712 37.3016C312.252 35.6216 312.552 33.5816 312.552 31.4216C312.552 27.4616 311.472 23.1416 308.592 19.5416C304.632 14.6816 297.072 14.3216 292.572 13.9016C288.312 13.4216 285.132 10.6616 285.132 6.64155V0.341553H296.412C300.252 0.341553 306.732 1.78155 309.912 3.70155C318.852 8.92155 321.612 16.5416 321.612 25.7216Z" fill="currentcolor"/>
<path d="M278.556 31.7215C279.276 33.1615 280.176 36.1015 280.176 39.3415C280.176 45.4015 276.936 52.4215 262.596 52.4215C247.416 52.4215 243.816 46.0615 243.816 39.8215C243.816 36.9415 244.536 34.1215 245.316 31.9015C246.096 29.6215 246.336 27.8215 246.336 26.3215C246.336 21.4015 243.336 19.4215 243.336 13.3015C243.336 12.4615 243.396 11.5615 243.516 10.5415C244.836 0.221504 261.276 0.0415039 262.356 0.0415039H262.416C273.636 0.0415039 279.036 5.6215 279.876 9.94151C280.056 10.7215 280.116 11.5015 280.116 12.2215C280.116 17.0815 276.996 20.6215 276.996 25.6015C276.996 27.4015 277.416 29.3815 278.556 31.7215ZM266.556 50.2015C269.016 49.2415 271.956 46.3615 271.956 42.7015C271.956 41.2015 271.476 39.5815 270.276 37.9015C266.436 32.5015 263.976 28.9615 263.976 24.5215C263.976 21.0415 265.476 17.0215 268.956 11.2015C268.956 11.2015 269.676 9.7615 269.676 7.96151C269.676 6.2215 269.016 4.1215 266.316 2.7415C264.876 2.0215 263.136 1.6615 261.396 1.6615C259.896 1.6615 258.396 1.9015 257.136 2.38151C255.156 3.1615 252.396 4.9615 252.396 7.8415C252.396 8.6815 252.636 9.64151 253.236 10.6615C256.476 16.4215 258.816 20.8615 258.816 25.4815C258.816 29.1415 257.376 32.9815 253.896 37.7215C252.576 39.5215 252.036 41.2015 252.036 42.7015C252.036 46.1815 254.916 48.8215 257.256 49.9015C258.696 50.5615 260.436 50.9215 262.236 50.9215C263.736 50.9215 265.236 50.6815 266.556 50.2015Z" fill="currentcolor"/>
<path d="M236.486 31.7215C237.206 33.1615 238.106 36.1015 238.106 39.3415C238.106 45.4015 234.866 52.4215 220.526 52.4215C205.346 52.4215 201.746 46.0615 201.746 39.8215C201.746 36.9415 202.466 34.1215 203.246 31.9015C204.026 29.6215 204.266 27.8215 204.266 26.3215C204.266 21.4015 201.266 19.4215 201.266 13.3015C201.266 12.4615 201.326 11.5615 201.446 10.5415C202.766 0.221504 219.206 0.0415039 220.286 0.0415039H220.346C231.566 0.0415039 236.966 5.6215 237.806 9.94151C237.986 10.7215 238.046 11.5015 238.046 12.2215C238.046 17.0815 234.926 20.6215 234.926 25.6015C234.926 27.4015 235.346 29.3815 236.486 31.7215ZM224.486 50.2015C226.946 49.2415 229.886 46.3615 229.886 42.7015C229.886 41.2015 229.406 39.5815 228.206 37.9015C224.366 32.5015 221.906 28.9615 221.906 24.5215C221.906 21.0415 223.406 17.0215 226.886 11.2015C226.886 11.2015 227.606 9.7615 227.606 7.96151C227.606 6.2215 226.946 4.1215 224.246 2.7415C222.806 2.0215 221.066 1.6615 219.326 1.6615C217.826 1.6615 216.326 1.9015 215.066 2.38151C213.086 3.1615 210.326 4.9615 210.326 7.8415C210.326 8.6815 210.566 9.64151 211.166 10.6615C214.406 16.4215 216.746 20.8615 216.746 25.4815C216.746 29.1415 215.306 32.9815 211.826 37.7215C210.506 39.5215 209.966 41.2015 209.966 42.7015C209.966 46.1815 212.846 48.8215 215.186 49.9015C216.626 50.5615 218.366 50.9215 220.166 50.9215C221.666 50.9215 223.166 50.6815 224.486 50.2015Z" fill="currentcolor"/>
<path d="M197.979 25.7216C197.979 36.4616 188.439 52.1216 171.039 52.1216H170.199C169.299 52.1216 168.399 52.0616 167.499 51.8216C162.519 50.5616 161.859 46.3616 161.499 43.9016C161.379 43.2416 161.379 42.6416 161.379 41.9816C161.379 37.7215 163.179 33.5216 163.419 32.9816C164.739 29.9816 165.099 27.0416 165.099 24.5816C165.099 20.8616 164.199 18.2816 164.199 18.2816H168.099C176.919 18.2816 180.159 22.7216 180.159 27.3416C180.159 31.1816 177.939 35.2016 174.819 36.9416C170.739 39.2816 168.279 41.0816 166.959 42.7616C166.239 43.7216 165.879 44.9816 165.879 46.1816C165.879 47.2016 166.179 48.1616 166.659 48.7616C167.619 49.9016 169.419 50.2016 170.679 50.2016C171.159 50.2016 171.519 50.2016 171.819 50.1416C174.279 49.7816 185.079 47.1416 188.079 37.3016C188.619 35.6216 188.919 33.5816 188.919 31.4216C188.919 27.4616 187.839 23.1416 184.959 19.5416C180.999 14.6816 173.439 14.3216 168.939 13.9016C164.679 13.4216 161.499 10.6616 161.499 6.64155V0.341553H172.779C176.619 0.341553 183.099 1.78155 186.279 3.70155C195.219 8.92155 197.979 16.5416 197.979 25.7216Z" fill="currentcolor"/>
<path d="M138.91 24.4016C155.17 32.4416 158.17 41.2016 158.17 46.6016C158.17 49.8416 157.09 51.8816 157.09 51.8816H141.07C143.17 48.8216 143.95 45.7616 143.95 42.8216C143.95 32.4416 133.63 23.7416 132.01 22.4216C129.91 20.8016 123.31 14.9816 121.45 4.72155C121.51 10.1216 125.17 20.9216 131.35 28.7816C136.21 34.9616 137.65 39.8216 137.65 43.4216C137.65 49.1816 133.99 51.8816 133.99 51.8816H118.45C118.45 51.8816 122.83 44.2616 122.83 33.4016C122.83 31.4816 122.71 29.5016 122.41 27.4616C121.93 24.5816 118.15 14.9216 118.15 4.90156C118.15 3.34155 118.27 1.84155 118.45 0.341553H122.89C122.89 0.341553 123.67 8.62155 129.07 14.7416C130.39 16.2416 132.43 16.9016 134.17 16.9016C135.13 16.9016 135.97 16.7216 136.63 16.3616C138.73 15.1616 139.45 13.6016 139.45 11.8016C139.45 7.96156 135.79 3.34155 133.99 0.341553H148.39C148.39 0.341553 151.57 3.46155 152.47 7.24155C152.71 8.26156 152.83 9.34156 152.89 10.3616V10.7816C152.89 17.7416 147.01 23.0216 140.35 23.0216C139.03 23.0216 137.65 22.8416 136.33 22.3616C135.67 22.1816 135.13 21.9416 134.59 21.7016C134.77 21.8216 134.95 21.9416 135.13 22.1216C136.33 22.9616 137.59 23.7416 138.91 24.4016Z" fill="currentcolor"/>
<path d="M112.644 12.5216C111.924 15.1016 111.624 17.5016 111.624 19.6616C111.624 24.9416 113.184 28.6616 113.184 28.6616H103.644C98.7243 28.6616 95.9643 25.2416 95.9643 21.3416C95.9643 18.1616 97.7643 14.6816 101.844 12.4016C103.224 11.4416 105.084 10.4216 106.704 8.08156C107.304 7.18156 107.724 6.22156 107.724 5.32156C107.724 3.70156 106.344 2.38157 102.504 2.38157C99.9243 2.38157 88.4643 5.38156 86.0043 15.1016C85.5243 16.9616 85.2243 19.1216 85.2243 21.2816C85.2243 24.8216 86.0643 28.4816 88.3443 31.4216C89.9643 33.5216 93.5643 35.4416 96.6243 36.1016C99.7443 36.7616 103.164 37.1216 105.504 37.2416C109.764 37.2416 113.184 40.3016 113.184 44.3216V52.1216H101.784C97.9443 52.1216 91.4043 50.6216 88.2243 48.7616C79.1643 43.4816 76.4043 35.8016 76.4043 26.6216C76.4043 15.8216 86.0043 0.101562 103.584 0.101562H104.364C107.184 0.101562 109.164 1.12156 110.484 2.38157C112.284 4.06156 113.244 6.46156 113.244 8.86156C113.244 9.46156 113.184 10.0616 113.064 10.6016C113.004 11.2016 112.824 11.8616 112.644 12.5216Z" fill="currentcolor"/>
<path d="M45.8269 3.52156C45.5269 4.06156 45.4069 4.60157 45.4069 5.20156C45.4069 6.40156 45.9469 7.66156 46.3669 8.26156C49.4869 13.0016 56.2669 17.8616 70.1269 17.8616H70.7869V22.0016C70.7869 23.8616 69.8869 25.7216 68.2669 26.9216C67.3069 27.6416 66.0469 28.1816 64.4869 28.1816C63.2269 28.1816 61.7869 27.8216 60.1069 26.9816C54.5269 24.1616 49.0669 17.8016 44.6269 9.34156C44.7469 9.94156 44.8669 10.3016 45.9469 14.3816C49.9669 29.0816 57.4669 29.1416 58.4269 37.6616C58.4869 38.1416 58.4869 38.6216 58.4869 39.1016C58.4869 44.8016 54.5269 48.7616 54.1069 48.8816H54.5269C55.7869 48.8816 59.5069 48.5216 61.9669 41.7416C63.1669 38.5616 65.8669 37.1216 68.8669 37.1216H68.9869C69.7069 37.1216 74.5069 37.3016 75.1069 41.3216V51.8816C75.0469 51.7016 73.1869 50.5016 68.2069 50.5016C66.2269 50.5016 63.8269 50.6816 60.8869 51.1616C58.0069 51.6416 55.0669 51.8816 52.1869 51.8816H40.7869C40.7869 51.8816 43.9069 44.5016 43.9069 35.4416C43.9069 32.8616 43.6669 30.1016 43.0069 27.4016C41.0269 19.0616 40.5469 14.0816 40.5469 10.1216C40.5469 9.22156 40.5469 8.38156 40.6069 7.54156V6.94156C41.0269 3.28156 44.0269 0.461565 47.6869 0.101562C51.1069 0.101562 52.3669 0.521563 55.7269 1.06156C58.6669 1.54156 61.4269 1.72156 63.8269 1.72156C70.6669 1.72156 75.1069 0.341562 75.1069 0.341562V7.12156C75.1069 10.6616 71.7469 14.9216 68.4469 14.9216H67.9669C66.7069 14.9216 62.9869 14.5016 59.3269 9.94156C56.0269 5.80156 53.5669 3.10156 50.8069 2.44156C50.3869 2.32156 49.7869 2.26156 49.1869 2.26156C47.8669 2.26156 46.4269 2.62156 45.8269 3.52156Z" fill="currentcolor"/>
<path d="M37.0219 25.7216C37.0219 36.4616 27.4819 52.1216 10.0819 52.1216H9.24187C8.34187 52.1216 7.44188 52.0616 6.54188 51.8216C1.56188 50.5616 0.901875 46.3616 0.541875 43.9016C0.421875 43.2416 0.421875 42.6416 0.421875 41.9816C0.421875 37.7215 2.22187 33.5216 2.46187 32.9816C3.78187 29.9816 4.14188 27.0416 4.14188 24.5816C4.14188 20.8616 3.24188 18.2816 3.24188 18.2816H7.14188C15.9619 18.2816 19.2019 22.7216 19.2019 27.3416C19.2019 31.1816 16.9819 35.2016 13.8619 36.9416C9.78188 39.2816 7.32187 41.0816 6.00187 42.7616C5.28188 43.7216 4.92188 44.9816 4.92188 46.1816C4.92188 47.2016 5.22188 48.1616 5.70188 48.7616C6.66188 49.9016 8.46188 50.2016 9.72188 50.2016C10.2019 50.2016 10.5619 50.2016 10.8619 50.1416C13.3219 49.7816 24.1219 47.1416 27.1219 37.3016C27.6619 35.6216 27.9619 33.5816 27.9619 31.4216C27.9619 27.4616 26.8819 23.1416 24.0019 19.5416C20.0419 14.6816 12.4819 14.3216 7.98188 13.9016C3.72188 13.4216 0.541875 10.6616 0.541875 6.64155V0.341553H11.8219C15.6619 0.341553 22.1419 1.78155 25.3219 3.70155C34.2619 8.92155 37.0219 16.5416 37.0219 25.7216Z" fill="currentcolor"/>
</svg>
