<svg width="168" height="1341" viewBox="0 0 168 1341" fill="none" xmlns="http://www.w3.org/2000/svg">
<rect x="0.473633" y="1340.51" width="83.7394" height="83.7394" transform="rotate(-90 0.473633 1340.51)" fill="#D9D9D9"/>
<rect x="0.473633" y="670.598" width="83.7394" height="83.7394" transform="rotate(-90 0.473633 670.598)" fill="#D9D9D9"/>
<rect x="0.473633" y="1005.56" width="83.7394" height="83.7394" transform="rotate(-90 0.473633 1005.56)" fill="#D9D9D9"/>
<rect x="0.473633" y="335.641" width="83.7394" height="83.7394" transform="rotate(-90 0.473633 335.641)" fill="#D9D9D9"/>
<rect x="0.473633" y="1173.03" width="83.7394" height="83.7394" transform="rotate(-90 0.473633 1173.03)" fill="#D9D9D9"/>
<rect x="0.473633" y="503.119" width="83.7394" height="83.7394" transform="rotate(-90 0.473633 503.119)" fill="#D9D9D9"/>
<rect x="0.473633" y="838.077" width="83.7394" height="83.7394" transform="rotate(-90 0.473633 838.077)" fill="#D9D9D9"/>
<rect x="0.473633" y="168.162" width="83.7394" height="83.7394" transform="rotate(-90 0.473633 168.162)" fill="#D9D9D9"/>
<rect x="0.473633" y="1256.77" width="83.7394" height="83.7394" transform="rotate(-90 0.473633 1256.77)" fill="black"/>
<rect x="0.473633" y="586.86" width="83.7394" height="83.7394" transform="rotate(-90 0.473633 586.86)" fill="black"/>
<rect x="0.473633" y="921.818" width="83.7394" height="83.7394" transform="rotate(-90 0.473633 921.818)" fill="black"/>
<rect x="0.473633" y="251.902" width="83.7394" height="83.7394" transform="rotate(-90 0.473633 251.902)" fill="black"/>
<rect x="0.473633" y="1089.3" width="83.7394" height="83.7394" transform="rotate(-90 0.473633 1089.3)" fill="black"/>
<rect x="0.473633" y="419.381" width="83.7394" height="83.7394" transform="rotate(-90 0.473633 419.381)" fill="black"/>
<rect x="0.473633" y="754.339" width="83.7394" height="83.7394" transform="rotate(-90 0.473633 754.339)" fill="black"/>
<rect x="0.473633" y="84.423" width="83.7394" height="83.7394" transform="rotate(-90 0.473633 84.423)" fill="black"/>
<rect x="84.2129" y="1340.51" width="83.7394" height="83.7394" transform="rotate(-90 84.2129 1340.51)" fill="black"/>
<rect x="84.2129" y="670.598" width="83.7394" height="83.7394" transform="rotate(-90 84.2129 670.598)" fill="black"/>
<rect x="84.2129" y="1005.56" width="83.7394" height="83.7394" transform="rotate(-90 84.2129 1005.56)" fill="black"/>
<rect x="84.2129" y="335.641" width="83.7394" height="83.7394" transform="rotate(-90 84.2129 335.641)" fill="black"/>
<rect x="84.2129" y="1173.03" width="83.7394" height="83.7394" transform="rotate(-90 84.2129 1173.03)" fill="black"/>
<rect x="84.2129" y="503.119" width="83.7394" height="83.7394" transform="rotate(-90 84.2129 503.119)" fill="black"/>
<rect x="84.2129" y="838.077" width="83.7394" height="83.7394" transform="rotate(-90 84.2129 838.077)" fill="black"/>
<rect x="84.2129" y="168.162" width="83.7394" height="83.7394" transform="rotate(-90 84.2129 168.162)" fill="black"/>
<rect x="84.2129" y="1256.77" width="83.7394" height="83.7394" transform="rotate(-90 84.2129 1256.77)" fill="#D9D9D9"/>
<rect x="84.2129" y="586.86" width="83.7394" height="83.7394" transform="rotate(-90 84.2129 586.86)" fill="#D9D9D9"/>
<rect x="84.2129" y="921.818" width="83.7394" height="83.7394" transform="rotate(-90 84.2129 921.818)" fill="#D9D9D9"/>
<rect x="84.2129" y="251.902" width="83.7394" height="83.7394" transform="rotate(-90 84.2129 251.902)" fill="#D9D9D9"/>
<rect x="84.2129" y="1089.3" width="83.7394" height="83.7394" transform="rotate(-90 84.2129 1089.3)" fill="#D9D9D9"/>
<rect x="84.2129" y="419.381" width="83.7394" height="83.7394" transform="rotate(-90 84.2129 419.381)" fill="#D9D9D9"/>
<rect x="84.2129" y="754.339" width="83.7394" height="83.7394" transform="rotate(-90 84.2129 754.339)" fill="#D9D9D9"/>
<rect x="84.2129" y="84.423" width="83.7394" height="83.7394" transform="rotate(-90 84.2129 84.423)" fill="#D9D9D9"/>
</svg>
